<?xml version="1.0" standalone="no"?>
<!DOCTYPE svg PUBLIC "-//W3C//DTD SVG 1.1//EN" "http://www.w3.org/Graphics/SVG/1.1/DTD/svg11.dtd" >
<svg xmlns="http://www.w3.org/2000/svg">
<metadata>Generated by IcoMoon</metadata>
<defs>
<font id="stm-splash-icons" horiz-adv-x="1024">
<font-face units-per-em="1024" ascent="960" descent="-64" />
<missing-glyph horiz-adv-x="1024" />
<glyph unicode="&#x20;" horiz-adv-x="512" d="" />
<glyph unicode="&#xe900;" glyph-name="quote" horiz-adv-x="1383" d="M179.649 600.702h179.649v179.649h-179.649v-179.649zM359.298 780.351h179.649v179.649h-179.649v-179.649zM0-64h503.018v503.018h-323.368v161.684h-179.649v-664.702zM844.351 600.702v-664.702h503.018v503.018h-323.368v161.684h-179.649zM1383.298 960h-179.649v-179.649h179.649v179.649zM1203.649 780.351h-179.649v-179.649h179.649v179.649z" />
<glyph unicode="&#xe901;" glyph-name="search" d="M902.44 250.646c162.041 162.080 162.041 425.714 0 587.755-162.041 162.080-425.714 162.080-587.755 0-137.455-137.455-158.282-341.894-62.522-501.547 0 0 6.89-11.549-2.388-20.867-53.009-53.009-212.035-212.035-212.035-212.035-42.203-42.203-52.265-101.202-14.838-138.629l6.46-6.46c37.427-37.427 96.426-27.366 138.629 14.838 0 0 158.713 158.674 211.604 211.604 9.748 9.709 21.258 2.858 21.258 2.858 159.653-95.799 364.132-74.972 501.586 62.483zM391.419 327.38c-119.72 119.759-119.72 314.568 0 434.288 119.759 119.759 314.568 119.759 434.288 0 119.759-119.72 119.759-314.529 0-434.288-119.72-119.72-314.529-119.72-434.288 0z" />
<glyph unicode="&#xe902;" glyph-name="trophy" horiz-adv-x="1260" d="M1010.137 896.985c0.866 38.676-0.63 63.094-0.63 63.094h-758.784c0 0-1.418-24.418-0.63-63.094h-250.014v-41.275c0-9.374 1.575-231.582 138.555-353.201 57.186-50.806 128.551-76.327 212.598-76.327 12.682 0 25.758 0.788 38.991 1.89 47.813-65.378 102.951-111.222 165.022-134.065v-181.248h-182.193v-113.428h-60.18v-63.646h634.565v63.646h-60.18v113.428h-182.193v181.248c62.070 22.843 117.209 68.687 164.943 134.065 13.312-1.103 26.388-1.89 39.070-1.89 84.047 0 155.412 25.521 212.519 76.327 137.058 121.62 138.634 343.828 138.634 353.201v41.275h-250.092zM193.694 564.027c-78.297 69.238-101.455 187.943-108.229 250.486h169.354c7.168-77.982 24.103-175.025 63.015-260.332 7.089-15.675 14.572-30.484 22.292-44.977-58.447 2.206-107.52 20.401-146.432 54.823zM1066.614 564.027c-38.912-34.422-88.064-52.618-146.353-54.823 7.641 14.415 15.124 29.302 22.292 44.977 38.912 85.307 55.769 182.351 62.858 260.332h169.433c-6.853-62.543-30.011-181.169-108.229-250.486z" />
<glyph unicode="&#xe903;" glyph-name="pin" horiz-adv-x="768" d="M384 959.168c-211.264 0-383.168-168.832-383.168-376.384 0-54.144 11.328-105.792 33.536-153.6 95.808-205.952 279.424-423.36 333.44-485.056 4.096-4.608 9.984-7.296 16.192-7.296s12.096 2.688 16.128 7.296c54.016 61.696 237.696 279.104 333.504 485.056 22.272 47.808 33.536 99.456 33.536 153.6-0.064 207.552-171.904 376.384-383.168 376.384zM384 387.328c-109.76 0-199.040 87.68-199.040 195.456 0 107.84 89.28 195.52 199.040 195.52 109.696 0 199.040-87.68 199.040-195.52 0-107.776-89.344-195.456-199.040-195.456z" />
<glyph unicode="&#xe904;" glyph-name="ico_camera" horiz-adv-x="1536" d="M1450.752 21.419c-9.899 0-20.053 1.963-30.037 6.144l-396.715 163.157v-169.301c0-47.104-38.229-85.333-85.333-85.333h-853.333c-47.104 0-85.333 38.229-85.333 85.333v853.419c0 47.104 38.229 85.333 85.333 85.333h853.333c47.104 0 85.333-38.229 85.333-85.333v-169.301l396.715 163.243c9.984 4.011 20.139 6.059 30.037 6.059 45.227 0 85.248-40.107 85.248-93.781v-665.856c0-53.589-40.021-93.781-85.248-93.781zM853.333 704.085v42.752c0 23.552-19.115 42.667-42.667 42.667h-597.333c-23.552 0-42.667-19.115-42.667-42.667v-597.333c0-23.637 19.115-42.752 42.667-42.752h597.333c23.552 0 42.667 19.115 42.667 42.752v554.581zM1365.333 661.419l-341.333-140.373v-145.749l341.333-140.459v426.581z" />
<glyph unicode="&#xe905;" glyph-name="ico_microphone" horiz-adv-x="896" d="M512 68.928v-68.864c0-35.328-28.672-64-64-64s-64 28.672-64 64v70.848c-219.648 32.384-384 227.136-384 453.824v115.328c0 35.392 28.672 64 64 64s64-28.608 64-64v-128c0-183.68 155.584-331.712 341.888-319.296 169.92 11.456 298.112 160.32 298.112 330.56v116.736c0 35.392 28.672 64 64 64s64-28.608 64-64v-128c0-225.664-166.976-412.032-384-443.136zM448 320.128c-106.048 0-192 85.888-192 191.936v256c0 106.048 85.952 192 192 192s192-85.952 192-192v-256c0-106.048-85.952-191.936-192-191.936zM512 768.064c0 35.328-28.736 64-64 64s-64-28.672-64-64v-256c0-35.264 28.736-64 64-64s64 28.736 64 64v256z" />
<glyph unicode="&#xe906;" glyph-name="ico_photo" horiz-adv-x="1317" d="M1243.429-63.927l-147.383 0.146c-39.863 0.585-72.046 32.987-72.046 72.997 0 40.448 32.768 73.143 73.143 73.143h36.571c20.187 0 36.571 16.384 36.571 36.571v512c0 20.187-16.384 36.571-36.571 36.571h-243.493l-42.789 42.862-103.497 103.424h-171.374l-146.286-146.286h-243.419c-20.187 0-36.571-16.384-36.571-36.571v-512c0-20.187 16.384-36.571 36.571-36.571h36.571c40.375 0 73.143-32.695 73.143-73.143 0-40.375-32.768-73.143-73.143-73.143h-146.286c-40.375 0-73.143 32.768-73.143 73.143v731.429c0 40.375 32.768 73.143 73.143 73.143h292.571l124.855 124.928c13.751 13.605 32.329 21.358 51.712 21.358h232.009c19.383 0 37.961-7.753 51.712-21.358l124.855-124.928h292.571c40.375 0 73.143-32.768 73.143-73.143v-731.429c0-40.375-32.768-73.143-73.143-73.143zM658.286 594.359c161.573 0 292.571-130.926 292.571-292.571 0-161.573-130.999-292.571-292.571-292.571s-292.571 130.999-292.571 292.571c0 161.646 130.999 292.571 292.571 292.571zM658.286 155.502c80.677 0 146.286 65.682 146.286 146.286 0 80.677-65.609 146.286-146.286 146.286s-146.286-65.609-146.286-146.286c0-80.603 65.609-146.286 146.286-146.286z" />
<glyph unicode="&#xe907;" glyph-name="ico_cart" d="M984.441 556.221c-13.258-78.255-80.303-135.060-159.528-135.060h-486.4l16.761-66.991c6.036-24.037 27.486-40.798 52.278-40.798h454.764c29.75 0 53.895-24.091 53.895-53.895 0-29.696-24.145-53.895-53.895-53.895h-454.764c-74.267 0-138.833 50.338-156.941 122.503l-131.072 524.234h-65.644c-29.75 0-53.895 24.145-53.895 53.895s24.145 53.895 53.895 53.895h107.789c24.684 0 46.349-16.815 52.278-40.852l16.707-66.937 27.001-107.789 53.895-215.579h513.347c26.408 0 48.721 19.025 53.14 45.056l28.456 170.523c0 0 2.749 11.21 9.701 53.787s53.895 54.003 53.895 54.003c15.737 0 30.828-6.845 41.176-19.079 10.24-12.072 14.659-28.025 11.965-43.655l-38.804-233.364zM646.737 636.632h-107.789v107.789h-107.789v107.789h107.789v107.789h107.789v-107.789h107.789v-107.789h-107.789v-107.789zM377.263 151.741c59.554 0 107.789-48.236 107.789-107.843 0-59.5-48.236-107.736-107.789-107.736s-107.789 48.236-107.789 107.736c0 59.608 48.236 107.843 107.789 107.843zM808.421 151.741c59.554 0 107.789-48.236 107.789-107.843 0-59.5-48.236-107.736-107.789-107.736-59.5 0-107.789 48.236-107.789 107.736 0 59.608 48.29 107.843 107.789 107.843z" />
<glyph unicode="&#xe908;" glyph-name="ico_tweet" horiz-adv-x="1260" d="M1259.717 837.159c-21.228-11.658-84.953-35.013-144.305-40.881 38.046 20.48 94.444 87.749 108.386 141.233-36.628-23.394-120.714-57.462-162.225-57.462 0 0 0-0.079 0.039-0.197-47.34 49.506-113.979 80.463-187.983 80.463-143.557 0-259.978-116.5-259.978-260.017 0-19.929 2.363-39.306 6.656-57.935h-0.079c-194.757 4.923-422.439 102.636-550.754 269.706-78.769-136.468-10.634-288.217 78.848-343.434-30.523-2.442-87.001 3.426-113.546 29.223-1.851-90.506 41.787-210.511 200.546-253.991-30.602-16.542-84.598-11.815-108.229-8.231 8.31-76.564 115.358-176.561 232.369-176.561-41.669-48.167-184.005-135.759-360.054-107.835 119.611-72.822 259.072-114.964 406.646-114.964 419.486 0 745.275 339.968 727.71 759.257 0 0.512-0.118 1.063-0.118 1.457 0 1.103 0.118 2.245 0.118 3.308 0 1.221-0.118 2.521-0.118 3.899 38.124 25.994 89.364 72.153 126.070 132.962z" />
<glyph unicode="&#xe909;" glyph-name="icon_testimonials" horiz-adv-x="1365" d="M1268.651 180.053c-62.848-86.955-170.368-163.84-319.616-228.693l-35.584-15.445-145.365 275.797 38.955 18.816c81.792 38.187 138.112 75.477 167.424 110.891 18.475 22.357 31.445 36.352 39.040 63.957l-245.504-0.341v555.051h597.333v-469.675c-5.632-129.195-38.997-230.741-96.683-310.357zM1280 874.667h-426.667v-384.256h256l-4.352-45.824c-4.523-64-26.667-109.739-65.749-157.013-32.256-38.997-83.755-76.459-156.8-114.005l68.523-128.811c116.651 54.869 200.491 116.992 249.557 184.832 53.248 73.429 79.488 173.184 79.488 303.531v341.547zM181.035-48.64l-35.584-15.445-145.365 275.797 38.955 18.816c81.792 38.187 138.112 75.477 167.381 110.891 18.517 22.357 31.488 36.352 39.083 63.957l-245.504-0.341v555.051h597.333v-469.675c-5.632-129.195-38.997-230.741-96.683-310.357-62.848-86.955-170.411-163.84-319.616-228.693zM512 874.667h-426.667v-384.256h256l-4.352-45.824c-4.523-64-26.667-109.739-65.749-157.013-32.256-38.997-83.755-76.459-156.8-114.005l68.523-128.811c116.651 54.869 200.491 116.992 249.557 184.832 53.205 73.429 79.488 173.184 79.488 303.531v341.547z" />
<glyph unicode="&#xe90a;" glyph-name="ico_arrow_right" horiz-adv-x="683" d="M341.333-15082.667v341.333h341.333v-341.333h-341.333zM0-15424v341.333h341.333v-341.333h-341.333zM0-14400h341.333v-341.333h-341.333v341.333zM0-10304v341.333h341.333v-341.333h-341.333zM341.333-9621.333h341.333v-341.333h-341.333v341.333zM0-9280h341.333v-341.333h-341.333v341.333zM0-5184v341.333h341.333v-341.333h-341.333zM341.333-4501.333h341.333v-341.333h-341.333v341.333zM0-4160h341.333v-341.333h-341.333v341.333zM0-64v341.333h341.333v-341.333h-341.333zM341.333 618.667h341.333v-341.333h-341.333v341.333zM0 960h341.333v-341.333h-341.333v341.333z" />
<glyph unicode="&#xe90b;" glyph-name="ico_print" d="M960 64.384l-128-0.128v-128h-640v128l-128 0.128c-35.392 0-64 28.672-64 64.064v576c0 35.264 28.608 64 64 64h128v191.808h640v-191.808h128c35.328 0 64-28.736 64-64v-576c0-35.392-28.672-64.064-64-64.064zM320 64.192h384v128h-384v-128zM704 832.256h-384v-64.064h384v64.064zM896 640.448h-768v-448l64-0.128v127.872h640v-127.872l64 0.128v448zM704 512.256h64v-64h-64v64zM576 512.256h64v-64h-64v64z" />
<glyph unicode="&#xe90c;" glyph-name="ico_message" horiz-adv-x="1365" d="M1280-63.488h-1194.667c-47.104 0-85.333 38.229-85.333 85.504v853.248c0 47.104 38.229 85.333 85.333 85.333h1194.667c47.104 0 85.333-38.229 85.333-85.333v-853.248c0-47.275-38.229-85.504-85.333-85.504zM256 789.845l426.667-341.333 426.667 341.333h-853.333zM1194.667 704.512l-512-426.581-512 426.581v-597.248h1024v597.248z" />
<glyph unicode="&#xe90d;" glyph-name="ico_phone" horiz-adv-x="768" d="M704-63.744h-640c-35.328 0-64 28.672-64 64.064v895.936c0 35.392 28.672 64.064 64 64.064h640c35.328 0 64-28.672 64-64.064v-895.936c0-35.392-28.672-64.064-64-64.064zM320 0.32h128v127.936h-128v-127.936zM640 832.256h-512v-640h512v640z" />
<glyph unicode="&#xe90e;" glyph-name="ico_check" horiz-adv-x="1229" d="M5.12-6997.197l144.794 144.896 289.69-289.69 639.181 639.283 144.896-144.794-784.077-784.077-434.483 434.381zM5.12-3310.797l144.794 144.794 289.69-289.587 639.181 639.283 144.896-144.794-784.077-784.077-434.483 434.381zM5.12 375.603l144.794 144.896 289.69-289.69 639.181 639.283 144.896-144.794-784.077-784.077-434.483 434.381zM439.603-10828.39l639.181 639.283 144.896-144.794-784.077-784.077-434.483 434.381 144.794 144.896 289.69-289.69z" />
<glyph unicode="&#xe90f;" glyph-name="ico_calendar" d="M960-64h-896c-35.328 0-64 28.672-64 64v896c0 35.328 28.672 64 64 64h64v-192h256v192h256v-192h256v192h64c35.328 0 64-28.672 64-64v-896c0-35.328-28.672-64-64-64zM896 640h-768v-576h768v576zM384 384h-128v128h128v-128zM384 192h-128v128h128v-128zM576 384h-128v128h128v-128zM576 192h-128v128h128v-128zM768 384h-128v128h128v-128zM768 192h-128v128h128v-128zM704 960h128v-128h-128v128zM192 960h128v-128h-128v128z" />
<glyph unicode="&#xe910;" glyph-name="ico_computer" horiz-adv-x="1260" d="M1253.612 226.422c-53.012-32.295-135.404-57.265-233.708-74.91v-215.513l-779.5 0.236v215.513c-98.304 17.644-180.697 42.614-233.708 74.91-25.994 15.754 28.514 56.95 71.207 63.33 4.569 0.63 8.98 1.024 13.154 0.866 171.087-48.758 367.852-69.396 549.337-70.498 175.813 2.521 364.229 23.394 528.857 70.262 4.175 0.236 8.586-0.158 13.154-0.866 42.693-6.38 97.122-47.577 71.207-63.33zM627.003 306.924c-112.404-0.394-223.862 7.089-322.087 21.977l-20.165 1.339v1.812c-70.262 11.579-133.12 27.097-183.926 46.474 4.017 34.265 8.665 66.402 13.47 97.201 22.134 140.761 50.806 247.020 71.129 321.772l8.35 31.035c22.055 82.55 35.604 121.856 105.866 129.89l0.079 1.339h19.298c3.781 0.158 7.562 0.236 11.658 0.236h629.918l0.079-1.812c70.262-8.113 83.81-47.34 105.866-129.89l8.35-31.035c20.322-74.673 48.916-181.012 71.129-321.694 4.805-30.878 9.374-63.015 13.47-97.28-125.952-47.892-326.026-72.546-529.25-71.601l-3.23 0.236zM972.17 579.466c-16.463 101.927-5.75 50.964-20.874 105.157l-6.302 22.449c-16.384 59.786-26.466 88.222-78.69 94.050l-0.079 1.339h-449.142c-2.993 0-5.829-0.079-8.665-0.158h-14.336v-1.024c-52.303-5.829-62.385-34.265-78.848-94.050l-6.223-22.449c-15.124-54.193-6.853-3.23-23.316-105.157-3.623-22.37-7.089-45.607-10.082-70.498 37.809-13.942 55.060-25.206 107.362-33.634v-1.339l14.966-0.945c73.177-10.791 146.196-16.226 229.927-15.911l2.363-0.158c151.237-0.709 258.284 17.172 352.020 51.83-3.072 24.812-6.459 48.128-10.082 70.498z" />
<glyph unicode="&#xe911;" glyph-name="ico_face" horiz-adv-x="1365" d="M682.667 960c-310.955 0-578.816-251.307-603.477-521.472-0.768-11.264-3.328-24.064-5.717-29.867-15.957-5.461-33.792-13.141-49.749-31.744-18.517-21.504-23.723-49.664-23.723-72.533v-112.896c0-38.656 22.528-70.315 44.117-86.699 21.504-16.384 37.632-24.661 67.243-24.661h6.229c123.221-94.037 328.704-144.128 565.077-144.128 236.203 0 441.856 50.091 565.077 144.128h6.144c29.696 0 46.336 8.277 67.84 24.661s43.605 48.128 43.605 86.699v112.896c0 22.869-5.291 51.029-23.723 72.533-15.957 18.603-33.792 26.283-49.749 31.744-2.389 5.803-4.949 18.603-5.717 29.867 0 0.085-0.427-0.085-0.427 0-51.968 319.829-292.096 521.472-603.051 521.472zM682.667 788.309c54.272 0 88.149-9.301 128.939-20.139l-1.707-13.995-31.061-240.64v-0.427c-0.683-5.461-0.597-10.411-0.853-15.616h-0.427c-0.085-1.195 0.085-1.877 0-2.901 0-0.683 0-1.365 0-2.048-0.085-5.205 0.341-9.472 0.427-10.325 0.171-1.877 0.512-3.84 0.853-5.717-0.085 0.341 1.365-6.656 3.925-12.8 0.085-0.256 0.256-0.512 0.427-0.768 0.085-0.341 0.256-0.512 0.427-0.853 5.205-11.093 21.077-31.744 47.872-36.608 0.171-0.085 0.256 0 0.427 0 0.341-0.085 0.512-0.341 0.853-0.427v0.427c27.989-4.437 54.272 12.971 60.843 20.139 0.427 0.512 4.352 3.072 9.045 11.947 0.939 1.792 2.048 3.755 3.072 6.144 1.365 2.987 2.389 5.12 2.987 6.997 0.085 0.341 0.256 0.853 0.427 1.28 0.085 0.171-0.085 1.024 0 1.195 1.707 4.864 3.584 10.496 5.205 17.323l50.432 206.507c90.624-64.768 150.187-159.317 158.293-265.387v-0.427c1.28-16.896 4.011-36.608 12.971-57.6 8.875-20.651 26.795-46.080 59.136-56.747v-85.589h-17.323c-12.8 0-25.6-4.352-35.328-12.288-72.192-59.051-251.989-112.725-459.861-112.725-208.043 0-388.096 53.675-460.288 112.725-9.728 7.936-22.528 12.288-35.413 12.288h-16.384c0 0-0.341 0-0.427 0v85.589c32.256 10.667 50.261 36.096 59.136 56.747 8.875 20.992 11.691 40.704 12.971 57.6v0.427c8.107 106.155 67.584 200.619 158.293 265.387l50.005-206.507c0-0.171 0.427 0.085 0.427 0 1.621-6.827 3.499-12.459 5.205-17.323h-0.427c0.085-0.341 0.683-1.195 0.853-1.621 0.085-0.171-0.085-0.683 0-0.853 0.597-1.877 1.707-4.011 2.987-6.997 1.024-2.389 2.048-4.352 3.072-6.144 4.693-8.875 8.619-11.52 9.045-11.947 6.485-7.083 32.427-24.405 60.416-20.139 0.085 0 0.256 0 0.427 0 0.341 0 0.939-0.085 1.28 0 26.283 4.949 43.435 27.648 47.872 36.608 0.171 0.341 0.256 0.853 0.427 1.195 0.085 0.171 0.341 0.341 0.427 0.427 2.475 6.059 4.267 12.885 4.352 13.141 0.256 1.792 0.256 3.669 0.427 5.376 0.085 1.109 0.512 5.376 0.427 10.325 0 0.683 0 1.365 0 2.048-0.085 0.853 0.085 1.536 0 2.475h-0.427c-0.256 5.376-0.597 10.411-1.28 16.043v0.427l-30.635 240.64-1.792 13.995c40.96 10.837 74.752 20.139 129.024 20.139z" />
<glyph unicode="&#xe912;" glyph-name="ico_quad" d="M640-64v128h256v256h128v-384h-384zM896 832h-256v128h384v-384h-128v256zM0 320h128v-256h256v-128h-384v384zM128 576h-128v384h384v-128h-256v-256z" />
<glyph unicode="&#xe913;" glyph-name="ico_pin" horiz-adv-x="843" d="M451.223-58.579c-7.77-3.373-16.083-5.060-24.335-5.060-1.747 0-3.494 0.361-5.24 0.482-1.747-0.12-3.494-0.482-5.301-0.482-8.252 0-16.504 1.687-24.275 5.060-89.751 38.852-392.072 266.662-392.072 599.462 0 231.544 188.717 419.177 421.647 419.418 232.87-0.241 421.647-187.874 421.647-419.418 0-332.8-302.381-560.61-392.072-599.462zM421.647 839.831c-166.129-0.301-301.176-134.264-301.176-298.948 0-246.302 218.594-438.754 295.876-477.847 1.566 0.904 3.554 1.988 5.301 2.771 1.687-0.783 3.674-1.867 5.301-2.771 77.282 39.093 295.876 231.544 295.876 477.847 0 164.683-135.048 298.647-301.176 298.948zM421.647 418.244c-66.56 0-120.471 53.911-120.471 120.471 0 66.44 53.911 120.41 120.471 120.41 66.5 0 120.471-53.971 120.471-120.41 0-66.56-53.971-120.471-120.471-120.471z" />
<glyph unicode="&#xe914;" glyph-name="ico_cart_af" d="M984.441 556.275c-13.258-78.255-80.303-135.006-159.528-135.006h-486.4l16.761-67.045c6.036-24.037 27.486-40.798 52.278-40.798h454.764c29.75 0 53.895-24.091 53.895-53.895 0-29.696-24.145-53.895-53.895-53.895h-454.764c-74.267 0-138.833 50.338-156.941 122.503l-131.072 524.234h-65.644c-29.75 0-53.895 24.199-53.895 53.895 0 29.804 24.145 53.895 53.895 53.895h107.789c24.684 0 46.349-16.815 52.278-40.852l16.761-66.937h739.382c15.737 0 30.828-6.845 41.176-19.025 10.24-12.126 14.659-28.079 11.965-43.655l-38.804-233.418zM257.671 744.583l53.895-215.579h513.347c26.408 0 48.721 19.025 53.14 45.056l28.456 170.523h-648.839zM377.263 151.795c59.554 0 107.789-48.236 107.789-107.789 0-59.5-48.236-107.789-107.789-107.789s-107.789 48.29-107.789 107.789c0 59.554 48.236 107.789 107.789 107.789zM808.421 151.795c59.554 0 107.789-48.236 107.789-107.789 0-59.5-48.236-107.789-107.789-107.789-59.5 0-107.789 48.29-107.789 107.789 0 59.554 48.29 107.789 107.789 107.789z" />
<glyph unicode="&#xe915;" glyph-name="ico_search" d="M994.112-33.856c-37.504-37.44-98.304-37.44-135.744 0l-169.472 169.408c-69.696-44.672-152-71.296-240.896-71.296-247.424 0-448 200.576-448 448s200.576 448 448 448c247.424 0 448-200.576 448-448 0-88.896-26.688-171.264-71.36-240.896l169.472-169.472c37.504-37.504 37.504-98.24 0-135.744zM448 832.256c-176.768 0-320-143.232-320-320 0-176.704 143.232-320 320-320 176.704 0 320 143.296 320 320 0 176.768-143.296 320-320 320z" />
<glyph unicode="&#xe916;" glyph-name="ico_close" d="M1024 9.143l-73.143-73.143-438.857 438.857-438.857-438.857-73.143 73.143 438.857 438.857-438.857 438.857 73.143 73.143 438.857-438.857 438.857 438.857 73.143-73.143-438.857-438.857z" />
<glyph unicode="&#xe917;" glyph-name="ico_clock" d="M512 960c-282.77 0-512-229.23-512-512s229.23-512 512-512c282.77 0 512 229.23 512 512s-229.23 512-512 512zM512 832c212.077 0 384-171.923 384-384s-171.923-384-384-384c-212.077 0-384 171.923-384 384s171.923 384 384 384zM448 704v-320h128v320h-128zM448 512h256v-128h-256v128z" />
<glyph unicode="&#xe918;" glyph-name="arrow-recap" d="M534.613-63.147l-108.544 113.579 298.411 312.235h-724.48v170.667h724.48l-298.411 312.235 108.544 113.579 488.533-511.147-488.533-511.147zM340.736-7687.765l108.544 113.579 488.533-511.147-488.533-511.147-108.544 113.579 298.411 312.235h-639.147v170.667h639.147l-298.411 312.235zM340.736-16221.099l108.544 113.579 488.533-511.147-488.533-511.147-108.544 113.579 298.411 312.235h-639.147v170.667h639.147l-298.411 312.235zM340.736-24754.432l108.544 113.579 488.533-511.147-488.533-511.147-108.544 113.579 298.411 312.235h-639.147v170.667h639.147l-298.411 312.235zM340.736-33287.765l108.544 113.579 488.533-511.147-488.533-511.147-108.544 113.579 298.411 312.235h-639.147v170.667h639.147l-298.411 312.235zM340.736-41821.099l108.544 113.579 488.533-511.147-488.533-511.147-108.544 113.664 298.411 312.149h-639.147v170.667h639.147l-298.411 312.235zM340.736-50354.432l108.544 113.579 488.533-511.147-488.533-511.061-108.544 113.579 298.411 312.149h-639.147v170.667h639.147l-298.411 312.235z" />
<glyph unicode="&#xe919;" glyph-name="soccer_ico_tshirt" horiz-adv-x="1161" d="M902.963 1.468h-645.393c-8.387 0.077-15.156 6.894-15.156 15.291 0 0.048 0 0.096 0.001 0.145v510.696l-48.879-49.971c-2.761-2.675-6.53-4.324-10.684-4.324s-7.923 1.649-10.688 4.328l-153.255 157.009c-2.736 2.822-4.422 6.676-4.422 10.923s1.686 8.1 4.426 10.927l226.505 231.488c2.624 4.035 7.064 6.698 12.133 6.826h153.892c8.357-0.115 15.088-6.917 15.088-15.29 0-0.048 0-0.097-0.001-0.145-0.087-1.926-0.136-4.192-0.136-6.47 0-84.906 68.83-153.737 153.737-153.737s153.737 68.83 153.737 153.737c0 2.278-0.050 4.545-0.148 6.799 0.011-0.321 0.011-0.321 0.011-0.321 0 8.445 6.846 15.292 15.292 15.292 0.024 0 0.048 0 0.072 0h153.869c5.512-0.028 10.322-3.008 12.932-7.439l225.318-230.88c2.73-2.827 4.418-6.676 4.437-10.919 0-0.016 0-0.029 0-0.043 0-4.237-1.693-8.079-4.44-10.886l-153.256-157.011c-2.708-2.79-6.494-4.522-10.684-4.522s-7.976 1.732-10.68 4.518l-48.882 49.975v-510.703c0-0.003 0-0.006 0-0.010 0-8.253-6.538-14.98-14.718-15.281z" />
<glyph unicode="&#xe91a;" glyph-name="soccer_ico_block_view" horiz-adv-x="1229" d="M1092.267-63.932h-955.733c-75.435 0-136.533 66.219-136.533 147.934v739.533c0 75.435 61.099 136.533 136.533 136.533h955.733c75.366 0 136.533-61.099 136.533-136.533v-739.533c0-81.715-61.167-147.934-136.533-147.934zM408.166 656.486c0 8.465-2.662 15.974-6.895 21.299l-0.205 0.478c-8.806 11.605-23.211 11.605-32.085 0l-157.559-209.033-0.819-0.683c-8.806-11.674-8.806-30.652 0-42.257l158.379-209.51c8.875-11.674 23.211-11.674 32.085 0l-0.068 0.137c4.369 5.461 7.168 13.039 7.168 21.572v417.997zM1018.197 468.548l-0.887 0.683-157.491 209.033c-8.875 11.605-23.279 11.605-32.154 0l-0.137-0.478c-4.233-5.325-6.895-12.834-6.895-21.299v-417.997c0-8.533 2.799-16.111 7.168-21.572l-0.137-0.137c8.943-11.674 23.279-11.674 32.154 0l158.379 209.51c8.806 11.605 8.806 30.583 0 42.257z" />
<glyph unicode="&#xe91b;" glyph-name="soccer_ico_grid_view" horiz-adv-x="1243" d="M1174.747-63.634h-227.694c-37.669 0-68.242 32.622-68.242 72.777v145.481c0 40.229 30.574 72.777 68.242 72.777h227.694c37.669 0 68.315-32.549 68.315-72.777v-145.481c0-40.155-30.647-72.777-68.315-72.777zM1174.747 302.080h-227.694c-37.669 0-68.242 32.622-68.242 72.777v145.481c0 40.229 30.574 72.777 68.242 72.777h227.694c37.669 0 68.315-32.549 68.315-72.777v-145.481c0-40.155-30.647-72.777-68.315-72.777zM1174.747 667.794h-227.694c-37.669 0-68.242 32.622-68.242 72.777v145.481c0 40.229 30.574 72.777 68.242 72.777h227.694c37.669 0 68.315-32.549 68.315-72.777v-145.481c0-40.155-30.647-72.777-68.315-72.777zM735.89-63.634h-227.694c-37.669 0-68.242 32.622-68.242 72.777v145.481c0 40.229 30.574 72.777 68.242 72.777h227.694c37.669 0 68.315-32.549 68.315-72.777v-145.481c0-40.155-30.647-72.777-68.315-72.777zM735.89 302.080h-227.694c-37.669 0-68.242 32.622-68.242 72.777v145.481c0 40.229 30.574 72.777 68.242 72.777h227.694c37.669 0 68.315-32.549 68.315-72.777v-145.481c0-40.155-30.647-72.777-68.315-72.777zM735.89 667.794h-227.694c-37.669 0-68.242 32.622-68.242 72.777v145.481c0 40.229 30.574 72.777 68.242 72.777h227.694c37.669 0 68.315-32.549 68.315-72.777v-145.481c0-40.155-30.647-72.777-68.315-72.777zM297.033-63.634h-227.694c-37.669 0-68.242 32.622-68.242 72.777v145.481c0 40.229 30.574 72.777 68.242 72.777h227.694c37.669 0 68.315-32.549 68.315-72.777v-145.481c0-40.155-30.647-72.777-68.315-72.777zM297.033 302.080h-227.694c-37.669 0-68.242 32.622-68.242 72.777v145.481c0 40.229 30.574 72.777 68.242 72.777h227.694c37.669 0 68.315-32.549 68.315-72.777v-145.481c0-40.155-30.647-72.777-68.315-72.777zM297.033 667.794h-227.694c-37.669 0-68.242 32.622-68.242 72.777v145.481c0 40.229 30.574 72.777 68.242 72.777h227.694c37.669 0 68.315-32.549 68.315-72.777v-145.481c0-40.155-30.647-72.777-68.315-72.777z" />
<glyph unicode="&#xe91c;" glyph-name="soccer_ico_ticker_post" d="M960-64h-896c-35.346 0-64 28.654-64 64v896c0 35.346 28.654 64 64 64h704v-128h192c35.346 0 64-28.654 64-64v-768c0-35.346-28.654-64-64-64zM896 704h-128v-512h-64v640h-576v-768h768v640zM256 256h320v-64h-320v64zM256 384h320v-64h-320v64zM256 704h320v-256h-320v256z" />
<glyph unicode="&#xe91d;" glyph-name="soccer_ico_cart" d="M887.269 832.054l-60.685-256h-570.53v256h631.215zM927.744 960h-863.663c-35.346 0-64-28.654-64-64s28.654-64 64-64h63.973v-384h723.806c45.169 0.004 83.049 31.207 93.265 73.233l75.587 319.498c1.821 6.99 2.867 15.014 2.867 23.283 0 52.959-42.888 95.9-95.827 95.986h-0.008zM256.054 320v128h-128v-160.013c0-53.012 42.975-95.987 95.987-95.987h671.744c35.331 0 63.973 28.642 63.973 63.973v0c0 35.331-28.642 63.973-63.973 63.973h-639.731zM384 32.040c0-53.012-42.975-95.987-95.987-95.987s-95.987 42.975-95.987 95.987c0 53.012 42.975 95.987 95.987 95.987s95.987-42.975 95.987-95.987zM896 32.040c0-53.012-42.975-95.987-95.987-95.987s-95.987 42.975-95.987 95.987c0 53.012 42.975 95.987 95.987 95.987 0.019 0 0.038 0 0.057 0 52.893-0.153 95.714-43.069 95.714-95.986 0 0 0 0 0-0.001z" />
<glyph unicode="&#xe91e;" glyph-name="ico_quote" horiz-adv-x="1235" d="M273.709 494.893c0 153.6 0 179.29 128.934 179.29v285.816c-300.815 0-386.861-200.704-386.861-554.797v-469.203h558.863v469.203h-300.936v89.69zM918.227 405.203v89.63c0 153.6 0 179.29 128.873 179.29v285.877c-300.604 0-386.59-200.704-386.59-554.797v-469.203h558.532v469.203h-300.664z" />
<glyph unicode="&#xe91f;" glyph-name="ico_share" horiz-adv-x="1084" d="M1086.103 628.706l-272.926-331.294v213.173c-100.292-5.24-368.098-30.539-510.133-152.937 103.693 197.492 286.436 341.551 505.053 391.162l5.079 211.191zM120.471 56.471h722.824v150.588h120.471v-210.824c0-33.267-26.968-60.235-60.235-60.235h-843.294c-33.267 0-60.235 26.968-60.235 60.235v662.588c0 33.267 26.968 60.235 60.235 60.235h331.294v-120.471h-271.059v-542.118z" />
<glyph unicode="&#xe920;" glyph-name="ico_bsb_add_cart" d="M1016.32 730.522l-150.477-284.621c76.288-8.448 135.68-73.165 135.68-151.552 0-83.763-67.84-153.242-151.552-153.242h-543.078v102.861h543.078c27.546 0 49.766 23.859 49.766 51.405s-22.221 49.818-49.766 49.818h-454.656c-19.098 0-36.045 10.598-44.544 26.522l-245.862 485.478h-104.909v102.861h135.629c19.098 0 37.12-10.598 45.568-27.597l244.838-484.403h325.376l170.189 326.349c0 0 21.453 31.437 50.227 31.437s33.894-8.499 43.469-24.422c9.523-15.923 9.523-34.97 1.024-50.893zM640 550.4h-102.4v153.6h-153.6v102.4h153.6v153.6h102.4v-153.6h153.6v-102.4h-153.6v-153.6zM432.384 90.829c42.394 0 77.363-35.021 77.363-77.414s-34.97-77.363-77.363-77.363c-42.394 0-77.363 34.97-77.363 77.363s34.97 77.414 77.363 77.414zM793.754 90.829c42.394 0 77.363-35.021 77.363-77.414s-34.97-77.363-77.363-77.363c-42.394 0-77.363 34.97-77.363 77.363 0 43.469 34.97 77.414 77.363 77.414z" />
<glyph unicode="&#xe921;" glyph-name="ico_bsb_remove_cart" d="M1016.32 730.522l-150.477-284.621c76.288-8.448 135.68-73.165 135.68-151.552 0-83.763-67.84-153.242-151.552-153.242h-543.078v102.861h543.078c27.546 0 49.766 23.859 49.766 51.405s-22.221 49.818-49.766 49.818h-454.656c-19.098 0-36.045 10.598-44.544 26.522l-245.862 485.478h-104.909v102.861h135.629c19.098 0 37.12-10.598 45.568-27.597l244.838-484.403h325.376l170.189 326.349c0 0 21.453 31.437 50.227 31.437s33.894-8.499 43.469-24.422c9.523-15.923 9.523-34.97 1.024-50.893zM769.843 646.605l-72.448-72.397-108.595 108.595-108.595-108.595-72.397 72.397 108.595 108.595-108.646 108.595 72.448 72.448 108.595-108.646 108.595 108.646 72.448-72.397-108.646-108.646 108.646-108.595zM432.384 90.829c42.394 0 77.363-35.021 77.363-77.414s-34.97-77.363-77.363-77.363c-42.394 0-77.363 34.97-77.363 77.363s34.97 77.414 77.363 77.414zM793.754 90.829c42.394 0 77.363-35.021 77.363-77.414s-34.97-77.363-77.363-77.363c-42.394 0-77.363 34.97-77.363 77.363 0 43.469 34.97 77.414 77.363 77.414z" />
<glyph unicode="&#xe922;" glyph-name="ico_bsb_cart" d="M395.315 345.19h454.656c27.546 0 49.766-22.221 49.766-49.818 0-27.546-22.221-51.405-49.766-51.405h-543.078v-102.861h543.078c83.712 0 151.552 69.427 151.552 153.242 0 78.387-59.392 143.053-135.68 151.552l150.477 284.672c8.499 15.872 8.499 34.97-1.024 50.842-9.574 15.923-25.446 24.371-43.469 24.371h-725.965l-64.666 126.669c-8.448 16.947-26.47 27.597-45.568 27.597h-135.629v-102.861h104.909l245.862-485.478c8.499-15.923 25.446-26.522 44.544-26.522zM751.411 448.051h-325.376l-38.144 76.339h403.763l-40.243-76.339zM297.779 704.051h589.261l-40.243-77.926h-510.874l-38.144 77.926zM432.384-63.949c-42.394 0-77.363 34.97-77.363 77.363s34.97 77.363 77.363 77.363c42.394 0 77.363-34.97 77.363-77.363s-34.97-77.363-77.363-77.363zM793.754 90.778c42.394 0 77.363-34.97 77.363-77.363s-34.97-77.363-77.363-77.363c-42.394 0-77.363 34.97-77.363 77.363 0 43.469 34.97 77.363 77.363 77.363z" />
<glyph unicode="&#xe923;" glyph-name="ico_qoute" horiz-adv-x="1489" d="M239.081 2.374l36.236-66.49c136.076 58.717 238.383 140.125 307.037 244.317s103.005 219.159 103.005 344.925c0 57.484-7.633 113.501-22.9 167.959-15.267 54.528-36.236 100.329-62.929 137.425-58.461 86.249-151.296 129.373-278.435 129.373-92.788 0-169.402-26.345-229.795-79.057-60.369-52.666-90.577-120.948-90.577-204.823 0-88.599 28.602-158.092 85.807-208.361 57.204-50.292 131.584-75.45 223.139-75.45 91.532 0 167.168 29.37 226.932 88.017 6.377-17.943 9.542-40.681 9.542-68.259 0-23.924-3.165-52.689-9.542-86.225-11.45-63.465-45.126-125.766-101.073-186.833-55.924-61.114-121.414-106.589-196.445-136.518v0zM1043.875 2.374l36.236-66.49c136.052 58.717 238.383 140.125 307.037 244.317 68.631 104.192 102.982 219.159 102.982 344.925 0 57.484-7.633 113.501-22.9 167.959-15.244 54.528-36.236 100.329-62.929 137.425-58.461 86.249-151.273 129.373-278.435 129.373-92.788 0-169.402-26.345-229.795-79.057-60.369-52.666-90.577-120.948-90.577-204.823 0-88.599 28.602-158.092 85.83-208.361 57.204-50.292 131.561-75.45 223.116-75.45 91.532 0 167.191 29.37 226.932 88.017 6.377-17.943 9.542-40.681 9.542-68.259 0-23.924-3.165-52.689-9.542-86.225-11.45-63.465-45.126-125.766-101.073-186.833-55.924-61.114-121.391-106.589-196.422-136.518v0z" />
<glyph unicode="&#xe924;" glyph-name="ico_testimonial_line" horiz-adv-x="9868" d="M6609.455 401.501v46.499h3257.856l0.652-46.499h-3258.508zM5267.735-64.093l-36.212 66.467c75.031 29.929 140.474 75.404 196.422 136.518 55.948 61.068 89.6 123.345 101.050 186.833 6.377 33.559 9.542 62.278 9.542 86.249 0 27.555-3.165 50.269-9.542 68.236-59.718-58.647-135.401-88.017-226.909-88.017-91.555 0-165.935 25.135-223.139 75.45-57.204 50.269-85.83 119.761-85.83 208.384 0 83.828 30.208 152.111 90.577 204.8 60.416 52.736 137.030 79.034 229.795 79.034 127.162 0 219.974-43.101 278.435-129.35 26.717-37.097 47.709-82.897 62.929-137.449 15.267-54.458 22.9-110.452 22.9-167.936 0-125.766-34.351-240.733-102.959-344.902-68.655-104.215-171.008-185.623-307.060-244.317zM4462.964-64.093l-36.259 66.467c75.031 29.929 140.521 75.404 196.468 136.518 55.948 61.068 89.6 123.345 101.050 186.833 6.377 33.559 9.542 62.278 9.542 86.249 0 27.555-3.165 50.269-9.542 68.236-59.764-58.647-135.401-88.017-226.909-88.017-91.555 0-165.935 25.135-223.139 75.45-57.204 50.269-85.83 119.761-85.83 208.384 0 83.828 30.208 152.111 90.577 204.8 60.416 52.736 137.030 79.034 229.795 79.034 127.162 0 219.974-43.101 278.435-129.35 26.717-37.097 47.663-82.897 62.929-137.449 15.267-54.458 22.9-110.452 22.9-167.936 0-125.766-34.304-240.733-103.005-344.902-68.655-104.215-170.961-185.623-307.014-244.317zM0 448h3257.856l0.652-46.499h-3258.508v46.499z" />
<glyph unicode="&#xe925;" glyph-name="ico_calendar_bsbl" d="M960-64h-896c-35.346 0-64 28.654-64 64v0 896c0 35.346 28.654 64 64 64v0h896c35.346 0 64-28.654 64-64v0-896c0-35.346-28.654-64-64-64v0zM704.64 704h-544.64c-17.673 0-32-14.327-32-32v0-576c0-17.673 14.327-32 32-32v0h704c17.673 0 32 14.327 32 32v0 576c0 17.673-14.327 32-32 32v0h-159.36zM672 192h-320c-17.673 0-32 14.327-32 32v0 64c0 17.673 14.327 32 32 32v0h96v128h-96c-17.673 0-32 14.327-32 32v0 64c0 17.673 14.327 32 32 32v0h192c17.673 0 32-14.327 32-32v0-224h96c17.673 0 32-14.327 32-32v0-64c0-17.673-14.327-32-32-32v0z" />
<glyph unicode="&#xe926;" glyph-name="ico_profile_bsbl" d="M813.696 534.208v0c11.597 31.765 18.304 68.437 18.304 106.675 0 176.731-143.269 320-320 320s-320-143.269-320-320c0-38.238 6.707-74.91 19.008-108.903l-0.704 2.228c-125.76-64.696-210.294-193.579-210.304-342.207v-192.001c0-35.346 28.654-64 64-64v0h896c35.346 0 64 28.654 64 64v0 192c-0.010 148.629-84.544 277.512-208.154 341.201l-2.15 1.007zM512 832c106.039 0 192-85.961 192-192s-85.961-192-192-192c-106.039 0-192 85.961-192 192v0c0 106.039 85.961 192 192 192v0zM896 64h-768v128c0.175 102.18 60.186 190.301 146.857 231.21l1.559 0.662c58.52-64 142.382-103.989 235.584-103.989s177.064 39.989 235.364 103.746l0.22 0.244c88.23-41.572 148.241-129.693 148.416-231.849v-128.023z" />
<glyph unicode="&#xe927;" glyph-name="mg-icon-arrow-italic" horiz-adv-x="1059" d="M533.543 892.232c-13.141-9.143-22.267-23.271-24.644-39.588l-0.038-0.316c-0.438-2.493-0.689-5.363-0.689-8.291 0-12.061 4.252-23.13 11.338-31.788l-0.071 0.089 234.522-270.469h-674.927c-16.545-0.026-31.631-6.253-43.062-16.481l0.062 0.055c-12.054-9.911-20.545-23.768-23.499-39.574l-0.065-0.416-13.244-75.25c-0.71-3.068-1.117-6.591-1.117-10.209 0-11.33 3.991-21.728 10.644-29.865l-0.067 0.084c8.405-10.094 20.975-16.471 35.034-16.471 0.715 0 1.425 0.016 2.132 0.049l-0.1-0.004h674.841l-329.809-270.469c-12.195-10.006-20.977-23.77-24.589-39.507l-0.093-0.483c-0.956-3.293-1.505-7.076-1.505-10.987 0-11.339 4.62-21.599 12.081-29.001l0.003-0.003 43-51.6c8.39-10.142 20.978-16.556 35.064-16.556 0.704 0 1.405 0.016 2.101 0.048l-0.099-0.004c16.56 0.026 31.652 6.288 43.058 16.563l-0.058-0.051 536.639 455.799c12.055 9.895 20.528 23.764 23.416 39.582l0.062 0.408c0.731 3.106 1.15 6.672 1.15 10.336 0 11.281-3.971 21.634-10.59 29.738l0.067-0.084-375.733 456.229c-8.436 10.093-21.029 16.468-35.112 16.468-0.687 0-1.371-0.015-2.051-0.045l0.097 0.003c-16.544-0.035-31.627-6.26-43.063-16.481l0.063 0.055z" />
<glyph unicode="&#xe928;" glyph-name="mg-icon-ball" d="M512 960v0c-282.77 0-512-229.23-512-512v0c0-282.77 229.23-512 512-512s512 229.23 512 512c0 282.77-229.23 512-512 512zM451.491 863.092c0-0.082 0-0.179 0-0.277 0-83.458-27.999-160.376-75.115-221.874l0.642 0.873-131.724 130.048c56.435 47.347 126.747 79.941 204.010 90.973l2.186 0.256zM512.465 505.018l-77.731 77.684c30.503 36.862 54.901 80.104 70.843 127.244l0.837 2.85c15.804 45.715 25.284 98.42 26.061 153.23l0.004 0.37c94.483-3.53 180.131-38.677 247.318-95.093l-0.628 0.513zM188.044 714.473l131.724-130.048c-61.056-47.234-138.648-75.79-222.902-76.009h-0.051c11.298 79.386 43.89 149.635 91.745 206.641l-0.516-0.631zM647.447 370.036l-77.731 77.684 267.171 266.892c55.643-66.685 90.7-152.26 94.462-245.892l0.026-0.799c-55.267-0.91-107.946-10.742-157.062-28.11l3.462 1.067c-49.92-17.355-93.139-41.452-131.232-71.722l0.904 0.694zM512.465 390.284l77.731-77.731c-29.6-37.114-53.75-80.231-70.262-126.956l-0.952-3.092c-16.079-45.64-25.875-98.293-26.988-153.077l-0.008-0.523c-47.599 2.414-92.218 12.126-133.765 28.043l2.972-1c-44.518 16.801-82.916 39.659-116.473 68.058l0.575-0.474zM836.887 180.829l-131.724 131.724c61.336 46.402 138.868 74.364 222.927 74.473h0.026c-11.456-79.465-44.019-149.786-91.764-206.995l0.535 0.659zM377.018 525.265l77.731-77.684-266.705-266.892c-56.013 66.497-91.164 152.192-94.468 245.991l-0.020 0.7c0.769-0.005 1.678-0.007 2.588-0.007 54.085 0 106.004 9.277 154.251 26.326l-3.24-0.998c49.869 17.416 92.976 42.056 130.568 73.131l-0.706-0.567zM572.975 31.884c0.35 84.339 29.010 161.917 76.962 223.794l-0.627-0.841 129.862-131.77c-56.414-47.353-126.747-79.901-204.036-90.793l-2.16-0.25z" />
<glyph unicode="&#xe929;" glyph-name="mg-icon-basket" horiz-adv-x="975" d="M723.432 179.81l-48.762-157.403c-23.893-51.054-98.158-86.406-187.051-86.406-102.4 0-183.93 45.836-194.024 109.032l-41.448 134.778h-252.148v780.19h975.238v-780.19h-251.806zM383.074 80.53l7.022-22.235c8.074-7.508 18.166-12.951 29.373-15.428l0.421-0.078c19.505-3.511 33.353-6.095 43.398-8.436v0h51.785l42.618 8.875c10.983 2.441 20.38 8.11 27.41 15.946l0.042 0.048 63.39 192.463c-11.41-3.608-23.357-6.875-35.84-9.752l-51.59-8.972c-16.384-1.999-32.037-3.267-48.177-3.998h-49.688c-17.115 0.731-32.817 1.999-47.982 3.852l-51.59 8.777q-19.505 4.486-37.157 10.045zM487.619 326.095c128 0 195.048 36.23 195.048 48.762s-67.048 48.762-195.048 48.762-195.048-36.23-195.048-48.762 67.048-48.762 195.048-48.762zM292.571 484.766c57.853 23.018 124.892 36.365 195.048 36.365s137.195-13.348 198.716-37.642l-3.668 1.277v182.662h-390.095v-182.662zM877.714 862.476h-780.19v-585.143h124.733l-14.921 48.762h-12.288v438.857h585.143v-438.857h-12.581l-14.629-48.762h124.733v585.143z" />
<glyph unicode="&#xe92a;" glyph-name="mg-icon-chevron-left" horiz-adv-x="608" d="M0.626 448l512 512 94.777-95.004-417.109-416.996 417.109-416.996-94.834-95.004z" />
<glyph unicode="&#xe92b;" glyph-name="mg-icon-chevron-right" horiz-adv-x="608" d="M607.573 448l-512 512-95.004-95.004 417.564-416.996-417.564-416.996 95.004-95.004z" />
<glyph unicode="&#xe92c;" glyph-name="mg-icon-fire" horiz-adv-x="805" d="M281.015 960.731c0.012-1.264 0.019-2.757 0.019-4.252 0-112.663-39.486-216.103-105.373-297.238l0.686 0.873c-104.594-136.777-217.307-244.297-160.914-462.994 25.502-123.009 114.788-220.295 230.993-256.811l2.406-0.652c-4.995 23.928-7.855 51.424-7.855 79.589 0 104.84 39.629 200.423 104.724 272.589l-0.32-0.36s4.023-291.84 221.33-356.206c0 0 241.371 116.297 237.495 364.983 0.107 4.137 0.167 9.008 0.167 13.894 0 138.282-48.661 265.199-129.793 364.561l0.821-1.037c-34.247-90.679-99.705-162.991-182.979-205.275l-2.145-0.988c11.857 39.209 18.682 84.27 18.682 130.926s-6.825 91.716-19.532 134.239l0.85-3.313c-35.503 102.765-110.719 183.919-206.829 226.512l-2.433 0.962z" />
<glyph unicode="&#xe92d;" glyph-name="mg-icon-flag" horiz-adv-x="883" d="M791.125 247.43c-42.175-17.555-91.167-27.752-142.541-27.752-25.376 0-50.171 2.488-74.155 7.233l2.413-0.398c-7.447 1.012-13.902 2.313-20.21 3.977l1.153-0.258v184.069c-45.079 8.393-85.12 21.115-122.84 38.080l3.381-1.36c-32.263 15.095-69.999 27.903-109.305 36.515l-3.646 0.67v-183.604c-5.948 0.037-11.718 0.712-17.271 1.961l0.538-0.102c-22.552 3.358-48.58 5.276-75.055 5.276-50.026 0-98.453-6.846-144.395-19.653l3.774 0.898v185.463c41.973 11.94 90.178 18.805 139.987 18.805 32.663 0 64.636-2.952 95.667-8.604l-3.244 0.49v183.139c-27.025 6.809-58.051 10.716-89.989 10.716-51.306 0-100.256-10.083-144.979-28.375l2.557 0.925v183.139c42.421 17.493 91.673 27.649 143.297 27.649 31.619 0 62.347-3.81 91.752-10.996l-2.638 0.545v-182.21c43.779-8.090 82.732-20.658 119.289-37.533l-3.084 1.277c33.296-15.897 72.129-29.196 112.658-37.939l3.548-0.641v183.604c26.35-5.23 56.645-8.223 87.638-8.223 52.082 0 102.19 8.452 149.027 24.058l-3.326-0.961v-186.393c-0.246 1.068-0.565 1.998-0.968 2.883l0.038-0.094c-43.33-14.647-93.234-23.1-145.112-23.1-30.875 0-61.051 2.994-90.253 8.708l2.954-0.482v-184.069c26.846-5.911 57.681-9.297 89.308-9.297 0.305 0 0.61 0 0.915 0.001h-0.047c2.554-0.068 5.56-0.107 8.576-0.107 48.268 0 94.212 9.954 135.889 27.922l-2.23-0.856 0.93-184.999zM0-64h92.964v259.37c44.222 15.2 95.176 23.976 148.181 23.976 72.806 0 141.744-16.558 203.255-46.114l-2.82 1.221c65.174-28.196 141.067-44.596 220.79-44.596s155.616 16.4 224.488 46.011l-3.698-1.414v738.6c-65.072-28.826-140.971-45.608-220.79-45.608s-155.717 16.782-224.36 47.011l3.571-1.403c-65.072 28.826-140.971 45.608-220.79 45.608s-155.717-16.782-224.36-47.011l3.571 1.403v-977.053z" />
<glyph unicode="&#xe92e;" glyph-name="mg-icon-shoping-cart" horiz-adv-x="1377" d="M66.625 829.794l187.702-2.595 220.373-603.913c3.291-9.212 8.32-17.086 14.74-23.581l-0.006 0.006c12.172-13.613 8.648-18.514 15.695-23.991l636.777 1.826c7.047 19.859 8.969 31.454 22.742 64.671 14.094 33.729 31.711 65.728 24.664 66.144l-606.347 1.698-31.070 85.106h671.691c9.609 25.625 17.937 35.554 30.109 66.496 13.453 33.953 31.711 67.265 24.664 66.721l-774.831-0.833-33.953 92.634h848.502c10.891 27.034 13.773 19.539 27.867 56.118 12.812 34.177 23.383 48.911 31.39 78.028l-956.126-1.666-59.257 162.846c-9.234 24.884-32.409 42.459-59.798 43.304l-0.1 0.002c-3.054 0.489-6.576 0.769-10.163 0.769-0.031 0-0.061 0-0.092 0h0.005l-290.521-0.929c-6.406-0.641 11.851-36.003 31.070-71.077 10.368-22.090 21.795-41.050 34.91-58.679l-0.636 0.895zM1005.774 125.303c-0.219 0.002-0.478 0.003-0.737 0.003-52.416 0-94.908-42.492-94.908-94.908s42.492-94.908 94.908-94.908c52.416 0 94.908 42.492 94.908 94.908 0 0.010 0 0.021 0 0.031v-0.002c0 0.105 0.001 0.229 0.001 0.353 0 52.087-42.116 94.337-94.151 94.555h-0.021zM517.301 127.193c-0.314 0.004-0.685 0.006-1.057 0.006-52.416 0-94.908-42.492-94.908-94.908s42.492-94.908 94.908-94.908c52.416 0 94.908 42.492 94.908 94.908 0 0.009 0 0.018 0 0.028v-0.001c0.001 0.162 0.002 0.354 0.002 0.546 0 51.929-41.961 94.058-93.827 94.33h-0.026z" />
<glyph unicode="&#xe92f;" glyph-name="mg-icon-whistle" horiz-adv-x="1126" d="M665.6 960h-102.4v-256h102.4v256zM665.6 601.6v-102.4h-102.4v102.4h-76.8c-140.978-0.248-261.427-87.873-310.102-211.598l-0.785-2.264c-13.992 5.718-30.229 9.037-47.241 9.037-70.692 0-128-57.308-128-128s57.308-128 128-128c17.012 0 33.249 3.319 48.099 9.344l-0.857-0.308c49.208-126.191 169.785-213.977 310.865-213.977 176.816 0 321.425 137.89 332.161 312.003l0.047 0.943c116.006 31.676 211.891 64.959 304.95 103.673l-16.642-6.137 19.507 4.864v250.419h-460.8zM102.4 268.8c0 14.138 11.462 25.6 25.6 25.6s25.6-11.462 25.6-25.6v0c0-14.138-11.462-25.6-25.6-25.6v0c-14.138 0-25.6 11.462-25.6 25.6v0zM733.082 330.547l-21.914-5.939 3.226-22.426c1.545-10.025 2.428-21.589 2.428-33.36 0-127.246-103.154-230.4-230.4-230.4s-230.4 103.154-230.4 230.4c0 110.799 78.21 203.33 182.435 225.4l1.505 0.267c6.861 1.382 13.824 2.458 20.838 3.226v-100.915h307.2v102.4h256v-67.072c-62.874-15.821-161.741-66.714-290.918-101.53zM929.638 863.027l-87.040 54.221-135.731-217.088 87.040-54.272zM520.038 700.16l-135.68 217.088-87.040-54.221 135.629-217.088z" />
<glyph unicode="&#xe930;" glyph-name="mg-flag" horiz-adv-x="883" d="M791.125 247.43c-42.175-17.555-91.167-27.752-142.541-27.752-25.376 0-50.171 2.488-74.155 7.233l2.413-0.398c-7.447 1.012-13.902 2.313-20.21 3.977l1.153-0.258v184.069c-45.079 8.393-85.12 21.115-122.84 38.080l3.381-1.36c-32.263 15.095-69.999 27.903-109.305 36.515l-3.646 0.67v-183.604c-5.948 0.037-11.718 0.712-17.271 1.961l0.538-0.102c-22.552 3.358-48.58 5.276-75.055 5.276-50.026 0-98.453-6.846-144.395-19.653l3.774 0.898v185.463c41.973 11.94 90.178 18.805 139.987 18.805 32.663 0 64.636-2.952 95.667-8.604l-3.244 0.49v183.139c-27.025 6.809-58.051 10.716-89.989 10.716-51.306 0-100.256-10.083-144.979-28.375l2.557 0.925v183.139c42.421 17.493 91.673 27.649 143.297 27.649 31.619 0 62.347-3.81 91.752-10.996l-2.638 0.545v-182.21c43.779-8.090 82.732-20.658 119.289-37.533l-3.084 1.277c33.296-15.897 72.129-29.196 112.658-37.939l3.548-0.641v183.604c26.35-5.23 56.645-8.223 87.638-8.223 52.082 0 102.19 8.452 149.027 24.058l-3.326-0.961v-186.393c-0.246 1.068-0.565 1.998-0.968 2.883l0.038-0.094c-43.33-14.647-93.234-23.1-145.112-23.1-30.875 0-61.051 2.994-90.253 8.708l2.954-0.482v-184.069c26.846-5.911 57.681-9.297 89.308-9.297 0.305 0 0.61 0 0.915 0.001h-0.047c2.554-0.068 5.56-0.107 8.576-0.107 48.268 0 94.212 9.954 135.889 27.922l-2.23-0.856 0.93-184.999zM0-64h92.964v259.37c44.222 15.2 95.176 23.976 148.181 23.976 72.806 0 141.744-16.558 203.255-46.114l-2.82 1.221c65.174-28.196 141.067-44.596 220.79-44.596s155.616 16.4 224.488 46.011l-3.698-1.414v738.6c-65.072-28.826-140.971-45.608-220.79-45.608s-155.717 16.782-224.36 47.011l3.571-1.403c-65.072 28.826-140.971 45.608-220.79 45.608s-155.717-16.782-224.36-47.011l3.571 1.403v-977.053z" />
<glyph unicode="&#xe931;" glyph-name="mg-tag" d="M1006.336 468.672l-464.704 472.512c-2.136 2.047-4.433 3.978-6.849 5.754l-0.191 0.134c-0.96 0.64-1.728 1.472-2.688 2.112-1.626 1.056-3.535 2.123-5.513 3.066l-0.311 0.134c-4.849 2.717-10.463 4.918-16.39 6.312l-0.442 0.088h-2.112c-3.079 0.562-6.676 0.931-10.343 1.022l-0.089 0.002h-432.704c-0.133 0.001-0.291 0.002-0.449 0.002-34.752 0-62.95-28.064-63.167-62.765v-427.221c0-1.408 0.384-2.752 0.448-4.224 0.109-2.808 0.384-5.454 0.819-8.046l-0.051 0.366c0.555-2.31 1.126-4.191 1.789-6.028l-0.125 0.396c0.576-2.048 1.088-4.096 1.856-6.4 1.063-2.322 2.067-4.211 3.163-6.038l-0.155 0.278c0.976-2.034 1.893-3.69 2.889-5.292l-0.137 0.236c1.672-2.388 3.353-4.476 5.161-6.445l-0.041 0.045c0.896-1.024 1.536-2.112 2.432-3.072l465.536-471.68c11.418-11.645 27.232-18.942 44.752-19.199l0.048-0.001h0.384c17.466 0.039 33.283 7.069 44.807 18.439l-0.007-0.007 431.552 426.368c11.863 11.347 19.236 27.303 19.236 44.981 0 17.27-7.037 32.896-18.4 44.167l-0.004 0.004zM529.728 87.872l-402.496 407.936v338.752h341.888l402.368-409.024zM353.152 692.928c-49.822-0.603-90.068-40.759-90.815-90.489l-0.001-0.071c0.292-49.51 40.496-89.533 90.047-89.533 49.732 0 90.048 40.316 90.048 90.048 0 49.462-39.878 89.609-89.237 90.044h-0.041z" />
<glyph unicode="&#xe932;" glyph-name="mg-comments" d="M946.29 216.462c14.416-26.977 28.559-49.649 44.006-71.326l-1.339 1.979c7.614-10.604 15.801-19.91 24.812-28.347l0.106-0.098c5.657-5.554 9.525-12.911 10.673-21.14l0.022-0.194c0.303-1.811 0.476-3.899 0.476-6.026 0-6.22-1.479-12.094-4.104-17.29l0.101 0.22c-3.635-7.207-8.754-13.181-14.992-17.709l-0.141-0.097c-6.011-4.445-13.569-7.114-21.751-7.114-0.173 0-0.346 0.001-0.519 0.004h0.026c-83.045 0.75-159.913 26.567-223.577 70.234l1.369-0.887c-32.025-7.869-68.803-12.407-106.633-12.459h-0.034c-1.935-0.031-4.219-0.049-6.508-0.049-72.61 0-141.069 17.773-201.265 49.205l2.404-1.143c-56.939 28.282-102.801 71.566-133.454 124.726l-0.803 1.511q-26.681 3.584-51.541 8.875c-62.178-43.088-139.133-68.969-222.113-69.347h-0.095c-0.141-0.002-0.308-0.003-0.474-0.003-8.188 0-15.752 2.669-21.87 7.185l0.101-0.071c-6.378 4.625-11.498 10.6-15.005 17.529l-0.127 0.277c-2.264 4.441-3.591 9.685-3.591 15.239 0 2.788 0.334 5.498 0.965 8.091l-0.048-0.233c1.514 8.135 5.315 15.204 10.702 20.715l-0.007-0.007c8.242 8.869 16.116 18.439 23.396 28.47l0.612 0.885c14.106 19.698 28.249 42.369 40.973 65.92l1.693 3.428c-47.586 43.131-77.547 104.956-78.221 173.789l-0.001 0.12c0.245 53.964 18.959 103.511 50.14 142.693l-0.362-0.471c35.016 44.913 80.123 80.348 132.021 103.194l2.18 0.856c53.121 24.172 115.204 38.26 180.577 38.26 1.836 0 3.669-0.011 5.5-0.033l-0.278 0.003c1.81 0.027 3.946 0.042 6.086 0.042 73.041 0 141.933-17.766 202.59-49.213l-2.453 1.157c57.311-28.104 103.486-71.426 134.311-124.736l0.8-1.5c59.364-6.934 113.266-24.891 161.482-51.813l-2.193 1.125c45.668-24.738 83.449-58.59 112.010-99.374l0.687-1.035c25.517-36.192 40.815-81.182 40.903-129.742v-0.022c-0.573-69.080-30.556-131.045-78.022-174.072l-0.2-0.178zM247.637 379.733l35.556-6.827c26.068-6.794 55.994-10.695 86.832-10.695 0.093 0 0.186 0 0.279 0h-0.014c1.073-0.012 2.34-0.018 3.609-0.018 49.698 0 97.030 10.13 140.044 28.438l-2.341-0.885c41.12 16.731 75.892 41.514 103.761 72.612l0.232 0.263c24.233 25.707 39.127 60.451 39.127 98.674s-14.894 72.967-39.194 98.745l0.067-0.072c-28.097 31.383-62.869 56.185-102.139 72.26l-1.854 0.672c-40.67 17.423-87.998 27.553-137.692 27.553-1.273 0-2.544-0.007-3.813-0.020l0.194 0.002c-1.076 0.012-2.347 0.018-3.62 0.018-49.694 0-97.022-10.13-140.032-28.437l2.34 0.885c-41.055-16.751-75.768-41.531-103.589-72.609l-0.234-0.266c-23.893-25.891-38.675-60.503-39.082-98.563l-0.001-0.082c1.084-45.409 21.445-85.856 53.181-113.623l0.181-0.155 44.43-42.667-28.444-56.889-14.222-24.917c29.146 9.591 54.464 22.248 77.504 37.993l-1.045-0.674zM885.874 276.594c32.050 28.181 52.437 68.965 53.359 114.528l0.003 0.16c-1.433 46.582-23.172 87.813-56.62 115.327l-0.269 0.214c-39.262 35.194-88.067 60.528-142.057 71.679l-1.985 0.343 1.764-17.806c0-0.13 0-0.284 0-0.438 0-49.147-15.643-94.641-42.223-131.774l0.466 0.684c-29.938-41.861-68.356-75.732-112.931-99.606l-1.757-0.86c-46.794-25.844-101.721-43.283-160.127-48.742l-1.665-0.126c27.619-28.004 61.148-50.103 98.572-64.281l1.894-0.63c38.955-15.187 84.050-23.987 131.201-23.987 31.359 0 61.809 3.893 90.893 11.222l-2.56-0.546 35.556 7.111 30.436-19.285c21.995-15.071 47.313-27.728 74.312-36.701l2.146-0.618-14.222 26.681-26.681 55.125z" />
<glyph unicode="&#xe933;" glyph-name="folder" horiz-adv-x="1170" d="M363.081 813.714l92.745-92.745c34.523-34.523 80.457-53.541 129.317-53.541h438.857v-585.143h-877.714v731.429h216.795zM408.576 960h-335.433c-40.375 0-73.143-32.695-73.143-73.143v-877.714c0-40.375 32.768-73.143 73.143-73.143h1024c40.375 0 73.143 32.768 73.143 73.143v731.429c0 40.448-32.768 73.143-73.143 73.143h-512c-9.728 0-19.017 3.877-25.893 10.752l-124.855 124.855c-6.875 6.875-16.165 10.679-25.819 10.679v0z" />
<glyph unicode="&#xe934;" glyph-name="mg-time" d="M512.512 902.656c0.851 0.006 1.856 0.009 2.863 0.009 82.89 0 160.441-22.86 226.692-62.619l-2 1.113c69.181-40.759 125.299-96.877 164.889-163.917l1.17-2.142c38.646-64.252 61.506-141.803 61.506-224.693 0-1.007-0.003-2.012-0.010-3.017l0.001 0.154c0.006-0.851 0.009-1.856 0.009-2.863 0-82.89-22.86-160.441-62.619-226.692l1.113 2c-40.761-69.18-96.879-125.297-163.917-164.888l-2.142-1.17c-64.252-38.646-141.803-61.506-224.693-61.506-1.007 0-2.012 0.003-3.017 0.010l0.154-0.001c-0.851-0.006-1.856-0.009-2.863-0.009-82.89 0-160.441 22.86-226.692 62.619l2-1.113c-69.178 40.763-125.295 96.88-164.888 163.917l-1.17 2.142c-38.646 64.252-61.506 141.803-61.506 224.693 0 1.007 0.003 2.012 0.010 3.017l-0.001-0.154c-0.006 0.851-0.009 1.856-0.009 2.863 0 82.89 22.86 160.441 62.619 226.692l-1.113-2c40.755 69.202 96.874 125.339 163.918 164.946l2.141 1.17c64.23 38.612 141.746 61.45 224.598 61.45 1.040 0 2.079-0.004 3.118-0.011l-0.16 0.001zM512.512 80.498c0.679-0.005 1.482-0.007 2.286-0.007 66.852 0 129.403 18.418 182.855 50.456l-1.617-0.899c55.837 32.854 101.119 78.137 133.031 132.246l0.942 1.728c31.149 52.586 49.557 115.905 49.557 183.524s-18.407 130.937-50.484 185.22l0.927-1.696c-32.854 55.837-78.137 101.119-132.246 133.031l-1.728 0.942c-52.586 31.149-115.905 49.557-183.524 49.557s-130.937-18.407-185.22-50.484l1.696 0.927c-55.838-32.852-101.121-78.135-133.031-132.246l-0.942-1.728c-31.149-52.586-49.557-115.905-49.557-183.524s18.407-130.937 50.484-185.22l-0.927 1.696c32.852-55.838 78.135-101.121 132.246-133.031l1.728-0.942c51.812-31.105 114.329-49.501 181.142-49.501 0.837 0 1.674 0.003 2.51 0.009l-0.129-0.001zM626.29 271.36c3.326-2.603 7.568-4.173 12.178-4.173 1.531 0 3.022 0.173 4.453 0.501l-0.133-0.026c6.052 1.134 11.179 4.456 14.633 9.097l0.044 0.062 33.052 47.73c2.965 3.805 4.754 8.654 4.754 13.92 0 0.908-0.053 1.804-0.157 2.684l0.010-0.107c-0.496 6.054-3.609 11.293-8.192 14.638l-0.057 0.040-122.994 88.178v260.551c0.002 0.119 0.004 0.258 0.004 0.399 0 12.096-9.806 21.902-21.902 21.902-0.041 0-0.083 0-0.124 0h-58.703c-0.034 0-0.074 0-0.114 0-12.096 0-21.902-9.806-21.902-21.902 0-0.040 0-0.080 0-0.12v0.006-300.942c0-0.038 0-0.083 0-0.128 0-7.444 3.575-14.053 9.101-18.205l0.059-0.042z" />
<glyph unicode="&#xe935;" glyph-name="helmet" d="M1018.415 226.863c-3.575 17.914-17.181 31.894-34.598 35.965l-0.311 0.061-106.589 23.040c-20.015 4.189-36.771 8.052-51.665 11.823 8.844 75.357 21.876 162.909 26.531 196.748 19.756 3.703 42.59 5.929 65.906 6.143l0.188 0.001c13.767 0.229 25.97 6.728 33.908 16.757l0.070 0.092c6.499 8.037 10.433 18.382 10.433 29.646 0 2.78-0.24 5.504-0.699 8.152l0.041-0.282c-38.874 231.7-237.947 406.065-477.746 406.065-267.346 0-484.073-216.727-484.073-484.073 0-4.764 0.069-9.512 0.206-14.242l-0.016 0.695c0-0.212-0.001-0.463-0.001-0.714 0-98.343 28.256-190.087 77.092-267.556l-1.222 2.077c7.818-12.871 21.76-21.337 37.68-21.337 7.685 0 14.909 1.973 21.194 5.44l-0.227-0.115c3.258 1.583 6.051 3.119 9.309 4.655 13.906 6.664 30.208 10.628 47.418 10.798h0.059c46.907-5.948 88.858-23.457 124.053-49.56l-0.707 0.501c46.852-34.269 104.432-56.575 166.914-61.371l1.115-0.069c30.43 0.254 59.2 7.089 85.044 19.147l-1.263-0.529c13.428 6.172 24.881 12.771 35.656 20.274l-0.747-0.492 141.033-23.738c27.882-86.060 100.888-149.869 190.409-164.035l1.358-0.177c2.003-0.327 4.311-0.513 6.664-0.513 0.112 0 0.224 0 0.335 0.001h-0.017c17.326 0.027 32.301 10.067 39.449 24.643l0.115 0.259c18.542 39.253 32.121 84.8 38.383 132.648l0.25 2.334 0.465 7.121c2.319 17.081 3.643 36.824 3.643 56.876 0 23.59-1.832 46.752-5.362 69.352l0.323-2.51zM922.996 70.377c-3.258-13.684-6.516-25.088-9.309-33.885-24.098 10.032-44.18 25.584-59.333 45.145l-0.246 0.33zM728.436 233.286q-0.698-8.89-1.396-16.803c-0.465-6.284-0.465-12.707-0.465-19.828l-56.32 9.309c7.226 14.132 13.876 30.789 19.008 48.097l0.541 2.125c11.192-8.749 23.892-16.481 37.453-22.652l1.18-0.481zM754.502 447.767c-4.655-33.327-10.24-74.473-15.36-114.223-10.434 10.326-17.861 23.671-20.865 38.616l-0.081 0.482c6.636 28.81 19.267 53.995 36.568 75.224l-0.262-0.332zM860.625 589.079c-37.595-4.327-71.897-13.979-103.673-28.254l2.204 0.885c-102.4-45.754-122.415-137.449-140.102-218.345-15.825-71.075-27.927-127.209-88.902-154.391-13.906-6.664-30.208-10.628-47.418-10.798h-0.059c-46.907 5.952-88.857 23.461-124.054 49.561l0.708-0.502c-46.853 34.267-104.433 56.572-166.913 61.371l-1.116 0.069c-20.779-0.028-40.79-3.277-59.573-9.274l1.391 0.384c-27.278 53.612-43.267 116.91-43.287 183.941v0.007c-0.087 3.096-0.137 6.74-0.137 10.395 0 217.604 176.403 394.007 394.007 394.007 176.66 0 326.164-116.264 376.172-276.45l0.751-2.792zM858.764 196.189l74.473-16.105c0.465-4.98 0.465-11.124 0.465-18.246l-116.364 19.642c-0.613 6.097-0.962 13.177-0.962 20.339 0 1.293 0.011 2.584 0.034 3.872l-0.003-0.194c13.498-3.351 27.462-6.377 42.356-9.542zM440.32 542.487c-0.97 0.024-2.113 0.038-3.258 0.038-76.348 0-138.24-61.892-138.24-138.24s61.892-138.24 138.24-138.24c76.348 0 138.24 61.892 138.24 138.24 0 0.003 0 0.006 0 0.009v-0.001c0.003 0.363 0.005 0.792 0.005 1.222 0 74.905-60.224 135.744-134.894 136.738l-0.094 0.001zM485.469 404.294c-0.776-24.327-20.683-43.753-45.127-43.753-24.935 0-45.149 20.214-45.149 45.149 0 24.928 20.202 45.137 45.126 45.149h0.001c25.003-0.282 45.163-20.616 45.163-45.658 0-0.394-0.005-0.786-0.015-1.178l0.001 0.058z" />
<glyph unicode="&#xe936;" glyph-name="football-ball" d="M511.701 832.299c311.765 0 512-247.467 512-384s-195.328-384-512-384c-322.645 0-512 247.467-512 384s190.507 384 512 384zM512 746.667c-267.904 0-426.667-192.213-426.667-298.667s157.867-298.667 426.667-298.667c263.936 0 426.667 192.213 426.667 298.667s-166.699 298.667-426.667 298.667zM810.667 320v256h-85.333v-85.333h-85.333v85.333h-85.333v-85.333h-85.333v85.333h-85.333v-85.333h-85.333v85.333h-85.333v-256h85.333v85.333h85.333v-85.333h85.333v85.333h85.333v-85.333h85.333v85.333h85.333v-85.333h85.333z" />
<glyph unicode="&#xe937;" glyph-name="arrow-left" horiz-adv-x="949" d="M7.314 465.92c-4.52-4.751-7.3-11.194-7.3-18.286s2.781-13.534 7.311-18.297l-0.011 0.011 307.931-307.2c2.188-2.471 4.871-4.451 7.9-5.794l0.146-0.058c2.812-0.796 6.068-1.322 9.423-1.46l0.085-0.003c3.417 0.079 6.678 0.608 9.771 1.53l-0.262-0.067c3.42 1.413 6.338 3.392 8.775 5.85l0.002 0.002c4.525 4.415 7.331 10.573 7.331 17.387 0 0.316-0.006 0.631-0.018 0.944l0.001-0.045c0.010 0.257 0.016 0.558 0.016 0.86 0 6.597-2.817 12.536-7.315 16.68l-0.016 0.014-264.046 264.046h834.56c14.138 0 25.6 11.462 25.6 25.6s-11.462 25.6-25.6 25.6v0h-834.56l264.046 263.314c4.52 4.751 7.3 11.194 7.3 18.286s-2.781 13.534-7.311 18.297l0.011-0.011c-4.788 4.459-11.206 7.225-18.268 7.314h-0.018c-6.847-0.093-13.029-2.867-17.558-7.318l0.004 0.004-307.931-307.2z" />
<glyph unicode="&#xe938;" glyph-name="arrow-right" horiz-adv-x="949" d="M940.617 465.92c4.52-4.751 7.3-11.194 7.3-18.286s-2.781-13.534-7.311-18.297l0.011 0.011-307.931-307.2c-2.188-2.471-4.871-4.451-7.9-5.794l-0.146-0.058c-2.812-0.796-6.068-1.322-9.423-1.46l-0.085-0.003c-3.417 0.079-6.678 0.608-9.771 1.53l0.262-0.067c-3.42 1.413-6.338 3.392-8.775 5.85l-0.002 0.002c-4.525 4.415-7.331 10.573-7.331 17.387 0 0.316 0.006 0.631 0.018 0.944l-0.001-0.045c-0.010 0.257-0.016 0.558-0.016 0.86 0 6.597 2.817 12.536 7.315 16.68l0.016 0.014 264.046 264.046h-834.56c-14.138 0-25.6 11.462-25.6 25.6s11.462 25.6 25.6 25.6v0h834.56l-264.046 263.314c-4.536 4.744-7.328 11.189-7.328 18.286s2.792 13.542 7.338 18.296l-0.009-0.010c4.788 4.459 11.206 7.225 18.268 7.314h0.018c6.847-0.093 13.029-2.867 17.558-7.318l-0.004 0.004 307.931-307.2z" />
<glyph unicode="&#xe939;" glyph-name="cart" d="M439.954-12.581c0.154-0.001 0.336-0.001 0.519-0.001 14.084 0 27.483 2.933 39.619 8.223l-0.64-0.249c12.741 5.547 23.644 12.935 32.94 21.968l-0.026-0.025c9.035 9.116 16.426 19.88 21.677 31.799l0.266 0.677c5.084 11.768 8.040 25.47 8.040 39.863s-2.957 28.095-8.296 40.532l0.255-0.669c-5.608 12.564-12.986 23.315-21.963 32.496l0.020-0.020c-9.246 9.051-20.157 16.446-32.224 21.676l-0.691 0.267c-11.772 5.057-25.474 7.997-39.863 7.997s-28.090-2.94-40.538-8.253l0.675 0.256c-12.574-5.297-23.278-12.718-32.156-21.915l-0.027-0.028c-9.209-9.010-16.628-19.807-21.703-31.835l-0.24-0.641c-5.53-11.692-8.759-25.4-8.759-39.863s3.229-28.171 9.005-40.444l-0.246 0.581c5.223-12.703 12.657-23.515 21.915-32.449l0.028-0.027c8.93-9.184 19.627-16.599 31.548-21.701l0.635-0.242c11.564-5.043 25.038-7.978 39.197-7.978 0.363 0 0.725 0.002 1.087 0.006h-0.055zM439.954 141.019c28.277 0 51.2-22.923 51.2-51.2s-22.923-51.2-51.2-51.2v0c-0.289-0.006-0.63-0.009-0.971-0.009-13.95 0-26.559 5.743-35.591 14.994l-0.010 0.010c-9.044 9.161-14.63 21.755-14.63 35.654 0 0.117 0 0.234 0.001 0.35v-0.018c-0.003 0.218-0.005 0.476-0.005 0.734 0 13.957 5.585 26.61 14.642 35.846l-0.008-0.008c9.042 9.261 21.65 15.004 35.6 15.004 0.342 0 0.682-0.003 1.022-0.010l-0.051 0.001zM798.354-12.581c0.154-0.001 0.336-0.001 0.519-0.001 14.084 0 27.483 2.933 39.619 8.223l-0.64-0.249c12.741 5.547 23.644 12.935 32.94 21.968l-0.026-0.025c9.286 8.96 16.719 19.773 21.714 31.85l0.229 0.625c5.084 11.768 8.040 25.47 8.040 39.863s-2.957 28.095-8.296 40.532l0.255-0.669c-5.315 12.668-12.734 23.465-21.925 32.458l-0.018 0.017c-9.246 9.051-20.157 16.446-32.224 21.676l-0.691 0.267c-11.496 5.041-24.895 7.974-38.978 7.974-0.182 0-0.365 0-0.547-0.001h0.028c-14.512-0.002-28.339-2.932-40.923-8.232l0.694 0.259c-12.574-5.297-23.278-12.718-32.156-21.915l-0.027-0.028c-9.209-9.010-16.628-19.807-21.703-31.835l-0.24-0.641c-5.084-11.768-8.040-25.47-8.040-39.863s2.957-28.095 8.296-40.532l-0.255 0.669c5.223-12.703 12.657-23.515 21.915-32.449l0.028-0.027c8.93-9.184 19.627-16.599 31.548-21.701l0.635-0.242c11.89-5.040 25.717-7.971 40.228-7.973h0.001zM798.354 141.019c0.129 0.001 0.28 0.002 0.433 0.002 13.888 0 26.435-5.743 35.395-14.984l0.012-0.013c9.050-8.807 14.664-21.105 14.664-34.714 0-0.653-0.013-1.303-0.039-1.95l0.003 0.093c0.016-0.456 0.025-0.993 0.025-1.531 0-13.526-5.614-25.741-14.639-34.441l-0.015-0.014c-8.972-9.253-21.519-14.996-35.407-14.996-0.152 0-0.304 0.001-0.456 0.002h0.023c-28.129 0.366-50.834 23.072-51.2 51.165v0.035c-0.005 0.268-0.008 0.585-0.008 0.902 0 14.040 5.895 26.703 15.346 35.648l0.023 0.021c8.788 9.249 21.18 15.003 34.915 15.003 0.325 0 0.65-0.003 0.974-0.010l-0.048 0.001zM927.817 782.482c10.186-11.946 16.384-27.563 16.384-44.628 0-4.183-0.372-8.279-1.086-12.257l0.062 0.418-34.377-205.97c-4.017-20.404-14.185-37.966-28.462-51.142l-0.064-0.058c-14.256-13.56-32.99-22.53-53.766-24.476l-0.36-0.027-509.806-44.471 12.434-75.995c1.538-8.319 6.043-15.384 12.355-20.202l0.079-0.058c5.719-5.397 13.437-8.729 21.933-8.777h512.009c0.197 0.006 0.429 0.009 0.662 0.009 6.887 0 13.12-2.799 17.623-7.322l0.001-0.001c4.517-4.645 7.302-10.994 7.302-17.993s-2.785-13.349-7.308-17.999l0.006 0.006c-4.504-4.524-10.737-7.323-17.624-7.323-0.233 0-0.465 0.003-0.696 0.010l0.034-0.001h-512c-0.121-0.001-0.264-0.001-0.408-0.001-21.185 0-40.532 7.873-55.273 20.853l0.092-0.080c-15.3 12.465-25.935 30.143-29.195 50.292l-0.063 0.469-85.577 513.463c-1.538 8.319-6.043 15.384-12.355 20.202l-0.079 0.058c-5.723 5.391-13.438 8.722-21.932 8.777h-51.211c-0.197-0.006-0.429-0.009-0.662-0.009-6.887 0-13.12 2.799-17.623 7.322l-0.001 0.001c-4.956 4.608-8.046 11.165-8.046 18.443 0 0.022 0 0.044 0 0.065v-0.003c0.563 14.147 12.113 25.417 26.321 25.527h51.211c0.104 0 0.226 0.001 0.349 0.001 21.007 0 40.152-7.971 54.576-21.054l-0.068 0.061c15.516-12.589 26.375-30.387 29.916-50.699l0.072-0.501 5.12-30.501h626.834c0.188 0.002 0.41 0.003 0.633 0.003 10.378 0 20.221-2.292 29.050-6.398l-0.425 0.178c9.419-3.998 17.289-10.060 23.313-17.653l0.093-0.121zM892.709 734.501v8.192c-0.885 2.578-2.127 4.811-3.692 6.774l0.035-0.045c-1.528 1.935-3.495 3.457-5.756 4.425l-0.095 0.036c-2.233 0.929-4.826 1.469-7.546 1.469-0.176 0-0.351-0.002-0.526-0.007l0.026 0.001h-618.789l51.2-305.518 514.194 44.983c9.211 1.059 17.307 5.163 23.406 11.264v0c6.483 5.585 11.153 13.111 13.113 21.671l0.052 0.272 34.377 205.97z" />
<glyph unicode="&#xe93a;" glyph-name="date" d="M945.737 857.6c0.152 0.001 0.332 0.002 0.512 0.002 42.512 0 76.979-34.442 77.019-76.944v-716.804c-0.083-42.555-34.599-77.020-77.166-77.020-0.129 0-0.257 0-0.386 0.001h-869.649c-0.263-0.003-0.574-0.005-0.886-0.005-41.931 0-75.922 33.992-75.922 75.922 0 0.388 0.003 0.774 0.009 1.161l-0.001-0.058v716.8c-0.005 0.328-0.008 0.715-0.008 1.103 0 41.89 33.959 75.849 75.849 75.849 0.337 0 0.674-0.002 1.010-0.007l-0.051 0.001h128v25.527c-0.008 0.237-0.013 0.516-0.013 0.796 0 6.754 2.808 12.852 7.32 17.19l0.008 0.007c4.482 4.524 10.696 7.325 17.565 7.325 0.254 0 0.506-0.004 0.758-0.011l-0.037 0.001c13.876-0.575 24.984-11.658 25.598-25.47l0.002-0.057v-25.307h512v25.527c-0.008 0.237-0.013 0.516-0.013 0.796 0 6.754 2.808 12.852 7.32 17.19l0.008 0.007c4.413 4.515 10.565 7.315 17.371 7.315 0.064 0 0.129 0 0.193-0.001h-0.010c0.215 0.007 0.467 0.011 0.721 0.011 6.868 0 13.083-2.801 17.563-7.323l0.002-0.002c4.52-4.346 7.328-10.444 7.328-17.197 0-0.28-0.005-0.558-0.014-0.836l0.001 0.040v-25.527h128zM76.069 806.4c-0.322 0.016-0.699 0.024-1.078 0.024-6.759 0-12.861-2.812-17.2-7.331l-0.008-0.008c-4.884-4.484-7.959-10.871-8.046-17.978v-128.016h922.331v128c-0.152 6.977-2.907 13.282-7.329 18.009l0.014-0.015c-4.765 4.534-11.226 7.323-18.339 7.323-0.239 0-0.476-0.003-0.714-0.009l0.035 0.001h-128v-76.507c0.007-0.21 0.010-0.457 0.010-0.705 0-6.781-2.805-12.908-7.318-17.282l-0.006-0.006c-4.515-4.524-10.758-7.322-17.653-7.322-0.222 0-0.444 0.003-0.665 0.009l0.033-0.001c-0.027 0-0.059 0-0.091 0-6.834 0-13.015 2.798-17.46 7.311l-0.003 0.003c-4.519 4.38-7.325 10.506-7.325 17.288 0 0.248 0.004 0.495 0.011 0.741l-0.001-0.036v76.507h-512v-76.507c-0.086-7.122-3.162-13.509-8.028-17.977l-0.018-0.016c-4.447-4.516-10.628-7.314-17.463-7.314-0.032 0-0.064 0-0.096 0h0.005c-0.188-0.005-0.41-0.008-0.632-0.008-6.896 0-13.138 2.799-17.653 7.322v0c-4.519 4.38-7.325 10.506-7.325 17.288 0 0.248 0.004 0.495 0.011 0.741l-0.001-0.036v76.507h-128zM945.737 38.4c0.194-0.005 0.421-0.008 0.65-0.008 7.122 0 13.592 2.788 18.379 7.333l-0.012-0.011c4.484 4.855 7.253 11.351 7.314 18.493v537.393h-922.331v-537.454c0-0.018 0-0.040 0-0.062 0-7.278 3.090-13.835 8.030-18.429l0.015-0.014c4.347-4.526 10.449-7.339 17.208-7.339 0.379 0 0.756 0.009 1.131 0.026l-0.053-0.002h869.669zM433.737 166.4c3.696 0.008 7.215 0.76 10.417 2.114l-0.177-0.066c3.348 1.565 6.233 3.396 8.849 5.543l-0.072-0.058 256 256c4.553 4.737 7.356 11.184 7.356 18.286s-2.804 13.549-7.365 18.294l0.008-0.009c-4.7 4.526-11.101 7.315-18.154 7.315-0.046 0-0.093 0-0.139 0h0.007c-0.188 0.005-0.41 0.008-0.632 0.008-6.896 0-13.138-2.799-17.653-7.322v0l-238.446-238.007-84.114 84.48c-4.229 4.513-10.226 7.324-16.88 7.324-0.237 0-0.474-0.004-0.709-0.011l0.035 0.001c-0.349 0.018-0.757 0.029-1.167 0.029-6.732 0-12.806-2.816-17.109-7.334l-0.009-0.010c-4.936-4.533-8.025-11.010-8.046-18.209v-0.004c0.028-7.224 3.114-13.722 8.029-18.271l0.016-0.015 102.4-102.4c2.385-2.438 5.328-4.32 8.623-5.44l0.155-0.046c2.563-1.277 5.58-2.032 8.772-2.048h0.005z" />
<glyph unicode="&#xe93b;" glyph-name="shopping-cart" d="M307.2 140.8c-56.32 0-102.4-46.080-102.4-102.4s46.080-102.4 102.4-102.4 102.4 46.080 102.4 102.4-46.080 102.4-102.4 102.4zM0 960v-102.4h102.4l184.32-389.12-71.68-122.88c-5.12-15.36-10.24-35.84-10.24-51.2 0-56.32 46.080-102.4 102.4-102.4h614.4v102.4h-593.92c-5.12 0-10.24 5.12-10.24 10.24v5.122l46.080 87.040h378.88c40.96 0 71.68 20.48 87.040 51.2l184.32 332.798c10.24 10.24 10.24 15.36 10.24 25.6 0 30.72-20.48 51.2-51.2 51.2h-757.76l-46.080 102.4h-168.96zM819.2 140.8c-56.32 0-102.4-46.080-102.4-102.4s46.080-102.4 102.4-102.4 102.4 46.080 102.4 102.4-46.080 102.4-102.4 102.4z" />
<glyph unicode="&#xe93c;" glyph-name="play-button" d="M512 960c-282.766 0-512-229.23-512-512s229.234-512 512-512 512 229.23 512 512-229.234 512-512 512zM688.96 420.86l-256-160c-5.18-3.234-11.070-4.86-16.96-4.86-5.336 0-10.68 1.328-15.516 4.016-10.172 5.64-16.484 16.344-16.484 27.984v320c0 11.64 6.312 22.344 16.484 27.984 10.172 5.672 22.61 5.328 32.476-0.844l256-160c9.352-5.86 15.040-16.11 15.040-27.14s-5.688-21.282-15.040-27.14z" />
<glyph unicode="&#xe93d;" glyph-name="quote-esport" d="M585.142 886.858v-438.858h292.571c0-161.321-131.251-292.571-292.571-292.571v-146.287c242.001 0 438.858 196.857 438.858 438.858v438.858zM0 448h292.571c0-161.321-131.251-292.571-292.571-292.571v-146.287c242.001 0 438.858 196.857 438.858 438.858v438.858h-438.858z" />
<glyph unicode="&#xe954;" glyph-name="comment" horiz-adv-x="896" d="M449.024 832c175.872 0 318.976-143.552 318.976-320s-143.104-320-318.080-320l-3.776 0.256c-3.52 0.256-7.040 0.448-10.56 0.576l-21.504 0.96-20.608-6.208-213.952-64.128 25.984 102.528 14.272 56.384-33.024 47.808c-37.12 53.696-56.768 116.608-56.768 181.824 0 176.448 143.104 320 319.040 320zM449.024 960c-246.912 0-447.040-200.576-447.040-448 0-94.656 29.44-182.272 79.424-254.592l-81.408-321.408 430.208 128.96c6.272-0.256 12.48-0.96 18.816-0.96 246.848 0 446.976 200.576 446.976 448s-200.128 448-446.976 448v0z" />
</font>
</defs>
</svg>
