<svg xmlns="http://www.w3.org/2000/svg" xmlns:xlink="http://www.w3.org/1999/xlink" preserveAspectRatio="xMidYMid" width="18" height="15" viewBox="0 0 18 15">
  <defs>
    <style>
      .cls-1 {
        fill: #fff;
        fill-rule: evenodd;
      }
    </style>
  </defs>
  <path d="M16.000,14.999 L2.000,14.999 C0.895,14.999 -0.000,14.029 -0.000,12.832 L-0.000,1.999 C-0.000,0.894 0.895,-0.001 2.000,-0.001 L16.000,-0.001 C17.104,-0.001 18.000,0.894 18.000,1.999 L18.000,12.832 C18.000,14.029 17.104,14.999 16.000,14.999 ZM5.979,4.446 C5.979,4.322 5.940,4.212 5.878,4.134 L5.875,4.127 C5.746,3.957 5.535,3.957 5.405,4.127 L3.097,7.189 L3.085,7.199 C2.956,7.370 2.956,7.648 3.085,7.818 L5.405,10.887 C5.535,11.058 5.745,11.058 5.875,10.887 L5.874,10.885 C5.938,10.805 5.979,10.694 5.979,10.569 L5.979,4.446 ZM14.915,7.199 L14.902,7.189 L12.595,4.127 C12.465,3.957 12.254,3.957 12.124,4.127 L12.122,4.134 C12.060,4.212 12.021,4.322 12.021,4.446 L12.021,10.569 C12.021,10.694 12.062,10.805 12.126,10.885 L12.124,10.887 C12.255,11.058 12.465,11.058 12.595,10.887 L14.915,7.818 C15.044,7.648 15.044,7.370 14.915,7.199 Z" class="cls-1"/>
</svg>
