<svg xmlns="http://www.w3.org/2000/svg" xmlns:xlink="http://www.w3.org/1999/xlink" preserveAspectRatio="xMidYMid" width="17" height="14" viewBox="0 0 17 14">
  <defs>
    <style>
      .cls-1 {
        fill: #fff;
        fill-rule: evenodd;
      }
    </style>
  </defs>
  <path d="M16.061,13.995 L12.948,13.995 C12.433,13.995 12.015,13.549 12.015,13.000 L12.015,11.011 C12.015,10.461 12.433,10.016 12.948,10.016 L16.061,10.016 C16.576,10.016 16.995,10.461 16.995,11.011 L16.995,13.000 C16.995,13.549 16.576,13.995 16.061,13.995 ZM16.061,8.995 L12.948,8.995 C12.433,8.995 12.015,8.549 12.015,8.000 L12.015,6.011 C12.015,5.461 12.433,5.016 12.948,5.016 L16.061,5.016 C16.576,5.016 16.995,5.461 16.995,6.011 L16.995,8.000 C16.995,8.549 16.576,8.995 16.061,8.995 ZM16.061,3.995 L12.948,3.995 C12.433,3.995 12.015,3.549 12.015,3.000 L12.015,1.011 C12.015,0.461 12.433,0.016 12.948,0.016 L16.061,0.016 C16.576,0.016 16.995,0.461 16.995,1.011 L16.995,3.000 C16.995,3.549 16.576,3.995 16.061,3.995 ZM10.061,13.995 L6.948,13.995 C6.433,13.995 6.015,13.549 6.015,13.000 L6.015,11.011 C6.015,10.461 6.433,10.016 6.948,10.016 L10.061,10.016 C10.576,10.016 10.995,10.461 10.995,11.011 L10.995,13.000 C10.995,13.549 10.576,13.995 10.061,13.995 ZM10.061,8.995 L6.948,8.995 C6.433,8.995 6.015,8.549 6.015,8.000 L6.015,6.011 C6.015,5.461 6.433,5.016 6.948,5.016 L10.061,5.016 C10.576,5.016 10.995,5.461 10.995,6.011 L10.995,8.000 C10.995,8.549 10.576,8.995 10.061,8.995 ZM10.061,3.995 L6.948,3.995 C6.433,3.995 6.015,3.549 6.015,3.000 L6.015,1.011 C6.015,0.461 6.433,0.016 6.948,0.016 L10.061,0.016 C10.576,0.016 10.995,0.461 10.995,1.011 L10.995,3.000 C10.995,3.549 10.576,3.995 10.061,3.995 ZM4.061,13.995 L0.948,13.995 C0.433,13.995 0.015,13.549 0.015,13.000 L0.015,11.011 C0.015,10.461 0.433,10.016 0.948,10.016 L4.061,10.016 C4.576,10.016 4.995,10.461 4.995,11.011 L4.995,13.000 C4.995,13.549 4.576,13.995 4.061,13.995 ZM4.061,8.995 L0.948,8.995 C0.433,8.995 0.015,8.549 0.015,8.000 L0.015,6.011 C0.015,5.461 0.433,5.016 0.948,5.016 L4.061,5.016 C4.576,5.016 4.995,5.461 4.995,6.011 L4.995,8.000 C4.995,8.549 4.576,8.995 4.061,8.995 ZM4.061,3.995 L0.948,3.995 C0.433,3.995 0.015,3.549 0.015,3.000 L0.015,1.011 C0.015,0.461 0.433,0.016 0.948,0.016 L4.061,0.016 C4.576,0.016 4.995,0.461 4.995,1.011 L4.995,3.000 C4.995,3.549 4.576,3.995 4.061,3.995 Z" class="cls-1"/>
</svg>
